<svg version="1" xmlns="http://www.w3.org/2000/svg" width="808" height="808" viewBox="0 0 606.000000 606.000000"><path d="M279.1 28.1c-69.9 6.2-134.5 36.4-181.6 85-51.1 52.6-78.4 119-78.4 190.4 0 64.9 23.4 127.6 66 176.9 26.6 30.9 55.5 53 92.9 71 92 44.3 200.7 36.4 286.5-20.7 54.7-36.5 95.7-93.1 113-156.2 11.2-40.8 12.4-87 3.4-128-18.1-82.3-72.8-151.5-149.4-189-31.1-15.3-58.2-23.5-92-28-14.7-1.9-46.4-2.7-60.4-1.4zM324.5 52c51.9 4.4 101 23.4 141.5 54.8 18.8 14.6 41.4 38.9 54.8 59 40.7 60.9 52.7 135.8 32.7 205.2-11.7 40.6-31.7 74.8-62 105.9C447.3 522.3 390 549.1 325 555c-29 2.6-60.3-.2-90.5-8-34.3-9-69.8-26.9-98-49.7-12-9.7-31.6-29.6-40.7-41.3-54.3-70.2-67.7-160.9-35.7-242.7 12-30.6 30-58.1 54.4-83.2 38.7-39.7 88.3-65.7 143.4-75.1 22.5-3.8 44.7-4.8 66.6-3z"/><path d="M294.5 156.3c-73.1.5-133.2 1.1-133.5 1.3-.6.7 0 118 .9 178.8l.6 40.9 67.5 51.9c37.1 28.5 68.1 51.8 68.7 51.8 1.2 0 143.7-105.2 147.5-108.9 1.6-1.5 1.8-9.9 2.9-108.4.7-58.7 1-106.9.8-107.1-1.1-1-32.9-1-155.4-.3zM426 203.8c0 13.2-.3 27.3-.6 31.5l-.7 7.7H185.3l-.6-21.2c-.4-11.6-.7-25.5-.7-30.9V181l34.8-.3c19.1-.1 73.5-.3 121-.5l86.2-.2v23.8zm-1.1 89.4c-.1 14.5-.4 35.3-.8 46.3l-.6 19.9-62 46.2c-34.1 25.3-62.5 45.8-63.2 45.5-.6-.3-25.8-19.5-55.8-42.6-30.1-23.1-55.1-42.2-55.5-42.5-.4-.3-1.1-22.7-1.5-49.8l-.8-49.2H425l-.1 26.2z"/></svg>